<?xml version="1.0" standalone="no"?>
<!DOCTYPE svg PUBLIC "-//W3C//DTD SVG 20010904//EN"
 "http://www.w3.org/TR/2001/REC-SVG-20010904/DTD/svg10.dtd">
<svg version="1.0" xmlns="http://www.w3.org/2000/svg"
 width="634.000000pt" height="634.000000pt" viewBox="0 0 634.000000 634.000000"
 preserveAspectRatio="xMidYMid meet">
<metadata>
Created by potrace 1.14, written by Peter Selinger 2001-2017
</metadata>
<g transform="translate(0.000000,634.000000) scale(0.100000,-0.100000)"
fill="#000000" stroke="none">
<path d="M2979 6335 c-2 -2 -42 -6 -89 -9 -47 -3 -96 -8 -110 -10 -14 -3 -45
-7 -70 -10 -111 -15 -288 -53 -425 -93 -855 -248 -1570 -850 -1962 -1653 -147
-300 -257 -656 -288 -935 -4 -33 -9 -63 -11 -66 -9 -16 -19 -208 -19 -384 1
-181 6 -285 19 -385 3 -19 7 -55 10 -80 3 -25 8 -56 11 -70 3 -14 7 -38 10
-55 87 -511 362 -1081 720 -1491 174 -199 472 -462 634 -559 9 -5 53 -33 96
-61 338 -217 815 -390 1215 -440 19 -3 49 -7 65 -10 155 -25 644 -25 770 0 11
2 47 7 80 12 33 4 62 8 65 9 3 1 25 5 50 9 36 6 216 48 300 70 30 8 227 75
295 101 76 29 317 146 405 196 55 32 280 178 290 189 3 3 34 27 70 54 649 493
1107 1292 1204 2106 17 139 20 198 20 380 1 188 -7 361 -19 414 -3 11 -7 39
-9 61 -13 108 -56 309 -95 440 -112 376 -283 713 -517 1022 -161 212 -368 421
-583 588 -347 270 -768 473 -1194 574 -130 31 -160 38 -221 47 -21 3 -47 7
-58 9 -11 2 -46 7 -79 10 -33 4 -70 9 -82 11 -26 6 -493 15 -498 9z"/>
</g>
</svg>
