<?xml version="1.0" encoding="UTF-8"?>
<svg width="32px" height="36px" viewBox="0 0 32 36" version="1.1" xmlns="http://www.w3.org/2000/svg" xmlns:xlink="http://www.w3.org/1999/xlink">
    <!-- Generator: Sketch 43.2 (39069) - http://www.bohemiancoding.com/sketch -->
    <title>Pointer</title>
    <desc>Created with Sketch.</desc>
    <defs>
        <filter x="-21.4%" y="-9.4%" width="135.7%" height="131.2%" filterUnits="objectBoundingBox" id="filter-1">
            <feMorphology radius="1" operator="dilate" in="SourceAlpha" result="shadowSpreadOuter1"></feMorphology>
            <feOffset dx="-1" dy="2" in="shadowSpreadOuter1" result="shadowOffsetOuter1"></feOffset>
            <feGaussianBlur stdDeviation="1" in="shadowOffsetOuter1" result="shadowBlurOuter1"></feGaussianBlur>
            <feComposite in="shadowBlurOuter1" in2="SourceAlpha" operator="out" result="shadowBlurOuter1"></feComposite>
            <feColorMatrix values="0 0 0 0 0   0 0 0 0 0   0 0 0 0 0  0 0 0 0.2 0" type="matrix" in="shadowBlurOuter1" result="shadowMatrixOuter1"></feColorMatrix>
            <feMerge>
                <feMergeNode in="shadowMatrixOuter1"></feMergeNode>
                <feMergeNode in="SourceGraphic"></feMergeNode>
            </feMerge>
        </filter>
    </defs>
    <g id="Page-1" stroke="none" stroke-width="1" fill="none" fill-rule="evenodd">
        <g id="Pointer" filter="url(#filter-1)" transform="translate(3.000000, 0.000000)">
            <path d="M21.9795484,11.4691533 L21.7234839,11.5565015 C20.9119355,9.98746924 17.8942581,9.95673562 16.8027097,9.99879215 C15.8511613,8.47626472 13.1148387,8.50982907 12.2856774,8.55673828 L12.2856774,3.38863718 C12.2856774,0.252999002 7.43851613,0.252999002 7.43851613,3.38863718 L7.43851613,17.6923073 C7.43851613,16.3412411 6.5763871,15.7750954 5.33806452,14.7976854 C2.32264516,12.4174473 -0.565419355,15.5150728 1.86470968,17.6923073 C7.28270968,22.5453888 9.0543871,26.8561836 9.0543871,31.4407502 L23.5949677,31.4407502 C23.5949677,31.4407502 23.8004516,28.8360758 24.8874839,26.4121636 C26.0336774,23.8568247 26.8267097,20.1526146 26.8267097,17.3061151 C26.8267097,17.3061151 26.8267097,17.3061151 26.8267097,14.1223545 C26.8267097,10.9385939 21.9795484,11.4691533 21.9795484,11.4691533" id="Fill-51" fill="#FFFFFF"></path>
            <path d="M13.4166667,19.0967742 L13.4166667,24.2580645" id="Line" stroke="#000000" stroke-linecap="square"></path>
            <path d="M16.9166667,19.0967742 L16.9166667,24.2580645" id="Line" stroke="#000000" stroke-linecap="square"></path>
            <path d="M20.4166667,19.0967742 L20.4166667,24.2580645" id="Line" stroke="#000000" stroke-linecap="square"></path>
            <path d="M26.0183226,17.1358457 C26.0183226,19.8695205 25.2451613,23.5029624 24.1373548,25.9725707 C23.3425161,27.7454154 23.0010968,29.5853888 22.8669677,30.5470276 L9.84787097,30.5470276 C9.64464516,25.6021497 7.33509677,21.3981137 2.43645161,17.0108893 C1.5363871,16.2041317 1.65109677,15.3355025 2.13974194,14.8704543 C2.61664516,14.4151114 3.60070968,14.2210043 4.80335484,15.1709159 C5.88,16.0201344 6.63012903,17.5649032 6.63012903,18.6798058 L8.24690323,18.6798058 L8.24690323,3.21836781 C8.24690323,2.09375989 9.058,1.59029465 9.86232258,1.59029465 C10.6661935,1.59029465 11.4772903,2.09375989 11.4772903,3.21836781 L11.4772903,14.627416 L13.0940645,14.627416 L13.0940645,9.09455537 C13.9141935,9.10102561 15.0793548,9.23326106 15.7481935,9.76584237 C16.1356774,10.0743918 16.3244516,10.4965747 16.3244516,11.0574633 L16.3244516,14.603557 L17.9412258,14.603557 L17.9412258,11.0574633 C17.9412258,10.8799361 17.9236129,10.7088793 17.897871,10.5410575 C18.7198065,10.5430795 19.9147742,10.6716754 20.5949032,11.2127489 C20.9828387,11.5217027 21.1711613,11.9438856 21.1711613,12.5051786 L21.1711613,16.050868 L22.7879355,16.050868 L22.7879355,12.5051786 C22.7879355,12.3268427 22.7703226,12.1545727 22.7445806,11.9867509 C23.5624516,11.9875597 24.7533548,12.1141337 25.4393548,12.6584423 C25.8290968,12.9673961 26.0183226,13.3899834 26.0183226,13.9520851 L26.0183226,17.1358457 Z M26.5110323,11.5734646 C25.1105806,10.4638191 22.8303871,10.5143678 22.1091613,10.5620858 C21.9781935,10.4059914 21.8314194,10.2591979 21.6634194,10.1269624 C20.2634194,9.01650815 17.9836774,9.06786565 17.262,9.11477486 C17.1310323,8.95827602 16.9842581,8.81229132 16.8171613,8.67924709 C15.7256129,7.8142574 14.1016129,7.65492784 13.0940645,7.64886199 L13.0940645,3.21836781 C13.0940645,1.19884536 11.4682581,0.142983705 9.86232258,0.142983705 C8.25593548,0.142983705 6.63012903,1.19884536 6.63012903,3.21836781 L6.63012903,14.8279933 C6.39890323,14.5513908 6.146,14.3002647 5.87277419,14.084725 C3.94529032,12.5634107 1.97580645,12.9115903 0.961032258,13.8788906 C-0.0758709677,14.8668148 -0.294451613,16.6113522 1.29296774,18.0339953 C6.10174194,22.3411506 8.24554839,26.4234652 8.24554839,31.2704809 L8.24554839,31.9947429 L24.3487097,31.9947429 L24.402,31.321434 C24.4038065,31.2967662 24.6101935,28.8037034 25.6385161,26.5116222 C26.832129,23.8479069 27.6350968,20.0802075 27.6350968,17.1293755 L27.6350968,13.9520851 C27.6350968,12.9791234 27.2462581,12.1565946 26.5110323,11.5734646 L26.5110323,11.5734646 Z" id="Fill-52" fill="#000000"></path>
        </g>
    </g>
</svg>